%TF.GenerationSoftware,KiCad,Pcbnew,(5.1.7)-1*%
%TF.CreationDate,2021-02-07T19:51:08+07:00*%
%TF.ProjectId,75-pixels,37352d70-6978-4656-9c73-2e6b69636164,rev?*%
%TF.SameCoordinates,Original*%
%TF.FileFunction,Profile,NP*%
%FSLAX46Y46*%
G04 Gerber Fmt 4.6, Leading zero omitted, Abs format (unit mm)*
G04 Created by KiCad (PCBNEW (5.1.7)-1) date 2021-02-07 19:51:08*
%MOMM*%
%LPD*%
G01*
G04 APERTURE LIST*
%TA.AperFunction,Profile*%
%ADD10C,0.050000*%
%TD*%
G04 APERTURE END LIST*
D10*
X16031250Y-76218750D02*
X16031250Y-111281250D01*
X300937500Y-76218750D02*
X300937500Y-111281250D01*
X294656250Y-73781250D02*
X300937500Y-73781250D01*
X294656250Y-76218750D02*
X300937500Y-76218750D01*
X294656250Y-76218750D02*
G75*
G02*
X294656250Y-73781250I0J1218750D01*
G01*
X22312500Y-76218750D02*
X16031250Y-76218750D01*
X22312500Y-73781250D02*
X16031250Y-73781250D01*
X22312500Y-73781250D02*
G75*
G02*
X22312500Y-76218750I0J-1218750D01*
G01*
X16031250Y-38718750D02*
X16031250Y-73781250D01*
X17531250Y-112781250D02*
X242343750Y-112781250D01*
X17531250Y-112781250D02*
G75*
G02*
X16031250Y-111281250I0J1500000D01*
G01*
X243843750Y-111281250D02*
X243843750Y-97218750D01*
X244593750Y-97218750D02*
X244593750Y-111281250D01*
X246093750Y-112781250D02*
X299437500Y-112781250D01*
X246093750Y-112781250D02*
G75*
G02*
X244593750Y-111281250I0J1500000D01*
G01*
X243843750Y-111281250D02*
G75*
G02*
X242343750Y-112781250I-1500000J0D01*
G01*
X300937500Y-73781250D02*
X300937500Y-38718750D01*
X300937500Y-111281250D02*
G75*
G02*
X299437500Y-112781250I-1500000J0D01*
G01*
X271781250Y-37218750D02*
X299437500Y-37218750D01*
X299437500Y-37218750D02*
G75*
G02*
X300937500Y-38718750I0J-1500000D01*
G01*
X299437500Y-36468750D02*
X271781250Y-36468750D01*
X300937500Y-19687500D02*
X300937500Y-34968750D01*
X300937500Y-34968750D02*
G75*
G02*
X299437500Y-36468750I-1500000J0D01*
G01*
X299437500Y-18187500D02*
X268218750Y-18187500D01*
X299437500Y-18187500D02*
G75*
G02*
X300937500Y-19687500I0J-1500000D01*
G01*
X271781250Y-37218750D02*
G75*
G02*
X271781250Y-36468750I0J375000D01*
G01*
X243843750Y-58781250D02*
X243843750Y-92062500D01*
X244593750Y-92062500D02*
X244593750Y-58781250D01*
X243843750Y-97218750D02*
G75*
G02*
X244593750Y-97218750I375000J0D01*
G01*
X244593750Y-92062500D02*
G75*
G02*
X243843750Y-92062500I-375000J0D01*
G01*
X244593750Y-53531250D02*
X244593750Y-38718750D01*
X243843750Y-38718750D02*
X243843750Y-53531250D01*
X244593750Y-53531250D02*
G75*
G02*
X243843750Y-53531250I-375000J0D01*
G01*
X243843750Y-58781250D02*
G75*
G02*
X244593750Y-58781250I375000J0D01*
G01*
X246093750Y-37218750D02*
X266718750Y-37218750D01*
X266718750Y-36468750D02*
X246093750Y-36468750D01*
X244593750Y-29343750D02*
X244593750Y-34968750D01*
X243843750Y-29343750D02*
X243843750Y-34968750D01*
X259312500Y-17250000D02*
X267281250Y-17250000D01*
X268218750Y-18187500D02*
G75*
G02*
X267750000Y-17718750I0J468750D01*
G01*
X267281250Y-17250000D02*
G75*
G02*
X267750000Y-17718750I0J-468750D01*
G01*
X246093750Y-18187500D02*
X258375000Y-18187500D01*
X258843750Y-17718750D02*
G75*
G02*
X258375000Y-18187500I-468750J0D01*
G01*
X244593750Y-19687500D02*
X244593750Y-24656250D01*
X243843750Y-19687500D02*
X243843750Y-24656250D01*
X244593750Y-19687500D02*
G75*
G02*
X246093750Y-18187500I1500000J0D01*
G01*
X176250000Y-37218750D02*
X242343750Y-37218750D01*
X242343750Y-36468750D02*
X176250000Y-36468750D01*
X243843750Y-34968750D02*
G75*
G02*
X242343750Y-36468750I-1500000J0D01*
G01*
X246093750Y-36468750D02*
G75*
G02*
X244593750Y-34968750I0J1500000D01*
G01*
X244593750Y-38718750D02*
G75*
G02*
X246093750Y-37218750I1500000J0D01*
G01*
X242343750Y-37218750D02*
G75*
G02*
X243843750Y-38718750I0J-1500000D01*
G01*
X243843750Y-29343750D02*
G75*
G02*
X244593750Y-29343750I375000J0D01*
G01*
X244593750Y-24656250D02*
G75*
G02*
X243843750Y-24656250I-375000J0D01*
G01*
X266718750Y-36468750D02*
G75*
G02*
X266718750Y-37218750I0J-375000D01*
G01*
X176250000Y-37218750D02*
G75*
G02*
X176250000Y-36468750I0J375000D01*
G01*
X99843750Y-37218750D02*
X171093750Y-37218750D01*
X171093750Y-36468750D02*
X99843750Y-36468750D01*
X171093750Y-36468750D02*
G75*
G02*
X171093750Y-37218750I0J-375000D01*
G01*
X99843750Y-37218750D02*
G75*
G02*
X99843750Y-36468750I0J375000D01*
G01*
X242343750Y-18187500D02*
X39562500Y-18187500D01*
X242343750Y-18187500D02*
G75*
G02*
X243843750Y-19687500I0J-1500000D01*
G01*
X58125000Y-36468750D02*
X58125000Y-36750000D01*
X94875000Y-36468750D02*
X58125000Y-36468750D01*
X94875000Y-37218750D02*
X58593750Y-37218750D01*
X94875000Y-36468750D02*
G75*
G02*
X94875000Y-37218750I0J-375000D01*
G01*
X58593750Y-37218750D02*
G75*
G02*
X58125000Y-36750000I0J468750D01*
G01*
X38062500Y-37218750D02*
X48656250Y-37218750D01*
X49125000Y-36750000D02*
X49125000Y-36468750D01*
X49125000Y-36750000D02*
G75*
G02*
X48656250Y-37218750I-468750J0D01*
G01*
X38062500Y-36468750D02*
X49125000Y-36468750D01*
X38062500Y-37218750D02*
G75*
G02*
X38062500Y-36468750I0J375000D01*
G01*
X32250000Y-37218750D02*
X17531250Y-37218750D01*
X16031250Y-38718750D02*
G75*
G02*
X17531250Y-37218750I1500000J0D01*
G01*
X17531250Y-36468750D02*
X32250000Y-36468750D01*
X32250000Y-36468750D02*
G75*
G02*
X32250000Y-37218750I0J-375000D01*
G01*
X16031250Y-34968750D02*
X16031250Y-19687500D01*
X17531250Y-36468750D02*
G75*
G02*
X16031250Y-34968750I0J1500000D01*
G01*
X39562500Y-18187500D02*
G75*
G02*
X39093750Y-17718750I0J468750D01*
G01*
X258843750Y-17718750D02*
G75*
G02*
X259312500Y-17250000I468750J0D01*
G01*
X38625000Y-17250000D02*
G75*
G02*
X39093750Y-17718750I0J-468750D01*
G01*
X29718750Y-18187500D02*
X17531250Y-18187500D01*
X16031250Y-19687500D02*
G75*
G02*
X17531250Y-18187500I1500000J0D01*
G01*
X30187500Y-17718750D02*
G75*
G02*
X29718750Y-18187500I-468750J0D01*
G01*
X30656250Y-17250000D02*
X38625000Y-17250000D01*
X30187500Y-17718750D02*
G75*
G02*
X30656250Y-17250000I468750J0D01*
G01*
M02*
