%TF.GenerationSoftware,KiCad,Pcbnew,(5.1.7)-1*%
%TF.CreationDate,2021-02-07T19:51:08+07:00*%
%TF.ProjectId,75-pixels,37352d70-6978-4656-9c73-2e6b69636164,rev?*%
%TF.SameCoordinates,Original*%
%TF.FileFunction,Legend,Top*%
%TF.FilePolarity,Positive*%
%FSLAX46Y46*%
G04 Gerber Fmt 4.6, Leading zero omitted, Abs format (unit mm)*
G04 Created by KiCad (PCBNEW (5.1.7)-1) date 2021-02-07 19:51:08*
%MOMM*%
%LPD*%
G01*
G04 APERTURE LIST*
%ADD10C,0.300000*%
G04 APERTURE END LIST*
D10*
X175625000Y-106616071D02*
X176625000Y-106616071D01*
X175982142Y-108116071D01*
X177910714Y-106616071D02*
X177196428Y-106616071D01*
X177125000Y-107330357D01*
X177196428Y-107258928D01*
X177339285Y-107187500D01*
X177696428Y-107187500D01*
X177839285Y-107258928D01*
X177910714Y-107330357D01*
X177982142Y-107473214D01*
X177982142Y-107830357D01*
X177910714Y-107973214D01*
X177839285Y-108044642D01*
X177696428Y-108116071D01*
X177339285Y-108116071D01*
X177196428Y-108044642D01*
X177125000Y-107973214D01*
X179767857Y-108116071D02*
X179767857Y-106616071D01*
X180339285Y-106616071D01*
X180482142Y-106687500D01*
X180553571Y-106758928D01*
X180625000Y-106901785D01*
X180625000Y-107116071D01*
X180553571Y-107258928D01*
X180482142Y-107330357D01*
X180339285Y-107401785D01*
X179767857Y-107401785D01*
X181267857Y-108116071D02*
X181267857Y-107116071D01*
X181267857Y-106616071D02*
X181196428Y-106687500D01*
X181267857Y-106758928D01*
X181339285Y-106687500D01*
X181267857Y-106616071D01*
X181267857Y-106758928D01*
X181839285Y-108116071D02*
X182625000Y-107116071D01*
X181839285Y-107116071D02*
X182625000Y-108116071D01*
X183767857Y-108044642D02*
X183625000Y-108116071D01*
X183339285Y-108116071D01*
X183196428Y-108044642D01*
X183125000Y-107901785D01*
X183125000Y-107330357D01*
X183196428Y-107187500D01*
X183339285Y-107116071D01*
X183625000Y-107116071D01*
X183767857Y-107187500D01*
X183839285Y-107330357D01*
X183839285Y-107473214D01*
X183125000Y-107616071D01*
X184696428Y-108116071D02*
X184553571Y-108044642D01*
X184482142Y-107901785D01*
X184482142Y-106616071D01*
X185196428Y-108044642D02*
X185339285Y-108116071D01*
X185625000Y-108116071D01*
X185767857Y-108044642D01*
X185839285Y-107901785D01*
X185839285Y-107830357D01*
X185767857Y-107687500D01*
X185625000Y-107616071D01*
X185410714Y-107616071D01*
X185267857Y-107544642D01*
X185196428Y-107401785D01*
X185196428Y-107330357D01*
X185267857Y-107187500D01*
X185410714Y-107116071D01*
X185625000Y-107116071D01*
X185767857Y-107187500D01*
X187625000Y-108116071D02*
X187625000Y-106616071D01*
X187625000Y-107187500D02*
X187767857Y-107116071D01*
X188053571Y-107116071D01*
X188196428Y-107187500D01*
X188267857Y-107258928D01*
X188339285Y-107401785D01*
X188339285Y-107830357D01*
X188267857Y-107973214D01*
X188196428Y-108044642D01*
X188053571Y-108116071D01*
X187767857Y-108116071D01*
X187625000Y-108044642D01*
X188839285Y-107116071D02*
X189196428Y-108116071D01*
X189553571Y-107116071D02*
X189196428Y-108116071D01*
X189053571Y-108473214D01*
X188982142Y-108544642D01*
X188839285Y-108616071D01*
X191196428Y-108044642D02*
X191410714Y-108116071D01*
X191767857Y-108116071D01*
X191910714Y-108044642D01*
X191982142Y-107973214D01*
X192053571Y-107830357D01*
X192053571Y-107687500D01*
X191982142Y-107544642D01*
X191910714Y-107473214D01*
X191767857Y-107401785D01*
X191482142Y-107330357D01*
X191339285Y-107258928D01*
X191267857Y-107187500D01*
X191196428Y-107044642D01*
X191196428Y-106901785D01*
X191267857Y-106758928D01*
X191339285Y-106687500D01*
X191482142Y-106616071D01*
X191839285Y-106616071D01*
X192053571Y-106687500D01*
X192696428Y-107330357D02*
X193196428Y-107330357D01*
X193410714Y-108116071D02*
X192696428Y-108116071D01*
X192696428Y-106616071D01*
X193410714Y-106616071D01*
X194053571Y-108116071D02*
X194053571Y-106616071D01*
X194910714Y-108116071D01*
X194910714Y-106616071D01*
X195625000Y-108116071D02*
X195625000Y-106616071D01*
X195982142Y-106616071D01*
X196196428Y-106687500D01*
X196339285Y-106830357D01*
X196410714Y-106973214D01*
X196482142Y-107258928D01*
X196482142Y-107473214D01*
X196410714Y-107758928D01*
X196339285Y-107901785D01*
X196196428Y-108044642D01*
X195982142Y-108116071D01*
X195625000Y-108116071D01*
X197410714Y-107401785D02*
X197410714Y-108116071D01*
X196910714Y-106616071D02*
X197410714Y-107401785D01*
X197910714Y-106616071D01*
X198696428Y-107401785D02*
X198696428Y-108116071D01*
X198196428Y-106616071D02*
X198696428Y-107401785D01*
X199196428Y-106616071D01*
X200267857Y-108044642D02*
X200125000Y-108116071D01*
X199839285Y-108116071D01*
X199696428Y-108044642D01*
X199625000Y-107901785D01*
X199625000Y-107330357D01*
X199696428Y-107187500D01*
X199839285Y-107116071D01*
X200125000Y-107116071D01*
X200267857Y-107187500D01*
X200339285Y-107330357D01*
X200339285Y-107473214D01*
X199625000Y-107616071D01*
X201625000Y-108116071D02*
X201625000Y-107330357D01*
X201553571Y-107187500D01*
X201410714Y-107116071D01*
X201125000Y-107116071D01*
X200982142Y-107187500D01*
X201625000Y-108044642D02*
X201482142Y-108116071D01*
X201125000Y-108116071D01*
X200982142Y-108044642D01*
X200910714Y-107901785D01*
X200910714Y-107758928D01*
X200982142Y-107616071D01*
X201125000Y-107544642D01*
X201482142Y-107544642D01*
X201625000Y-107473214D01*
X202339285Y-108116071D02*
X202339285Y-106616071D01*
X202982142Y-108116071D02*
X202982142Y-107330357D01*
X202910714Y-107187500D01*
X202767857Y-107116071D01*
X202553571Y-107116071D01*
X202410714Y-107187500D01*
X202339285Y-107258928D01*
M02*
