M48
; DRILL file {KiCad (5.1.7)-1} date 02/07/21 19:51:06
; FORMAT={-:-/ absolute / metric / decimal}
; #@! TF.CreationDate,2021-02-07T19:51:06+07:00
; #@! TF.GenerationSoftware,Kicad,Pcbnew,(5.1.7)-1
; #@! TF.FileFunction,Plated,1,2,PTH
FMAT,2
METRIC
T1C0.400
T2C0.700
T3C0.800
T4C1.000
T5C1.092
T6C1.470
T7C2.500
%
G90
G05
T1
X33.094Y-39.094
X35.438Y-25.125
X36.844Y-58.671
X36.959Y-40.479
X37.875Y-57.656
X38.438Y-53.578
X41.812Y-49.5
X42.859Y-53.578
X43.031Y-51.844
X43.219Y-58.406
X47.672Y-52.641
X53.062Y-44.812
X57.75Y-35.156
X61.5Y-34.875
X87.656Y-110.812
X87.844Y-34.875
X87.938Y-53.625
X88.312Y-73.031
X88.641Y-92.016
X94.219Y-53.625
X94.875Y-110.812
X95.062Y-34.688
X95.062Y-73.031
X95.203Y-92.016
X96.0Y-38.531
X119.438Y-55.969
X125.812Y-53.625
X126.188Y-34.875
X126.375Y-91.969
X126.422Y-72.984
X127.969Y-42.188
X133.312Y-34.875
X133.312Y-91.969
X133.359Y-72.984
X135.281Y-41.062
X135.562Y-51.75
X139.406Y-49.781
X139.5Y-68.625
X142.406Y-104.812
X143.531Y-51.75
X144.695Y-108.711
X147.094Y-51.0
X148.969Y-73.219
X149.531Y-52.5
X150.562Y-40.594
X153.894Y-48.7
X157.5Y-79.031
X158.531Y-62.062
X158.531Y-106.969
X162.094Y-45.094
X163.219Y-44.25
X163.875Y-40.219
X163.942Y-54.026
X164.25Y-91.875
X164.625Y-32.25
X164.719Y-43.781
X165.656Y-73.781
X169.381Y-91.841
X169.688Y-33.75
X170.719Y-92.719
X174.562Y-55.594
X177.469Y-50.062
X196.594Y-69.375
X202.125Y-53.812
X202.5Y-72.938
X202.594Y-34.969
X202.641Y-91.922
X209.062Y-53.812
X209.344Y-34.969
X209.625Y-72.938
X209.719Y-92.062
X210.469Y-111.562
X221.344Y-34.969
X228.75Y-34.969
X228.844Y-92.531
X234.375Y-39.656
X237.629Y-56.344
X238.969Y-57.0
X247.969Y-53.906
X258.231Y-34.356
X263.991Y-96.375
X264.375Y-25.312
X265.219Y-97.125
X265.219Y-104.812
X265.969Y-28.219
X267.938Y-111.562
X269.719Y-55.219
X270.844Y-39.188
X272.719Y-49.969
X288.015Y-58.954
X292.031Y-50.25
X407.625Y-128.156
T2
X33.038Y-24.037
X33.837Y-22.837
X34.637Y-24.037
X35.438Y-22.837
X36.237Y-24.037
X261.65Y-24.037
X262.45Y-22.837
X263.25Y-24.037
X264.05Y-22.837
X264.85Y-24.037
X52.031Y-43.069
X52.831Y-41.869
X53.631Y-43.069
X54.431Y-41.869
X55.231Y-43.069
T3
X250.969Y-35.438
X252.969Y-35.438
X254.969Y-35.438
X256.969Y-35.438
X41.25Y-55.969
X43.25Y-55.969
X45.25Y-55.969
X47.25Y-55.969
X291.156Y-54.656
X293.156Y-54.656
T4
X33.562Y-63.731
X33.562Y-71.531
X205.012Y-25.631
X205.012Y-33.431
X147.862Y-25.631
X147.862Y-33.431
X224.062Y-44.681
X224.062Y-52.481
X205.031Y-82.856
X205.031Y-90.656
X185.963Y-63.731
X185.963Y-71.531
X224.062Y-101.831
X224.062Y-109.631
X33.562Y-82.781
X33.562Y-90.581
X262.162Y-101.831
X262.162Y-109.631
X226.237Y-82.781
X226.237Y-90.581
X52.612Y-63.731
X52.612Y-71.531
X52.594Y-46.538
X52.594Y-54.337
X90.712Y-44.681
X90.712Y-52.481
X270.319Y-73.688
X278.119Y-73.688
X262.162Y-26.85
X262.162Y-34.65
X128.812Y-82.781
X128.812Y-90.581
X166.912Y-63.731
X166.912Y-71.531
X147.037Y-95.156
X154.838Y-95.156
X224.062Y-82.781
X224.062Y-90.581
X226.237Y-101.831
X226.237Y-109.631
X33.562Y-101.831
X33.562Y-109.631
X109.762Y-63.731
X109.762Y-71.531
X52.612Y-25.631
X52.612Y-33.431
X185.963Y-44.681
X185.963Y-52.481
X185.963Y-25.631
X185.963Y-33.431
X166.912Y-44.681
X166.912Y-52.481
X166.912Y-25.631
X166.912Y-33.431
X52.612Y-82.781
X52.612Y-90.581
X205.031Y-63.806
X205.031Y-71.606
X202.444Y-95.25
X210.244Y-95.25
X281.212Y-82.781
X281.212Y-90.581
X71.662Y-101.831
X71.662Y-109.631
X71.662Y-63.731
X71.662Y-71.531
X224.062Y-25.631
X224.062Y-33.431
X262.162Y-44.681
X262.162Y-52.481
X205.031Y-44.756
X205.031Y-52.556
X90.712Y-25.631
X90.712Y-33.431
X33.562Y-26.287
X33.562Y-34.087
X71.662Y-82.781
X71.662Y-90.581
X224.062Y-63.731
X224.062Y-71.531
X109.762Y-101.831
X109.762Y-109.631
X52.612Y-101.831
X52.612Y-109.631
X283.688Y-101.831
X283.688Y-109.631
X90.712Y-63.731
X90.712Y-71.531
X283.688Y-25.631
X283.688Y-33.431
X226.237Y-44.681
X226.237Y-52.481
X226.406Y-25.631
X226.406Y-33.431
X90.712Y-82.781
X90.712Y-90.581
X262.162Y-63.731
X262.162Y-71.531
X124.194Y-95.156
X131.994Y-95.156
X262.162Y-82.781
X262.162Y-90.581
X142.631Y-57.188
X150.431Y-57.188
X281.212Y-101.831
X281.212Y-109.631
X281.212Y-25.631
X281.212Y-33.431
X128.812Y-44.681
X128.812Y-52.481
X33.562Y-46.444
X33.562Y-54.244
X109.762Y-25.631
X109.762Y-33.431
X166.912Y-82.781
X166.912Y-90.581
X109.762Y-82.781
X109.762Y-90.581
X270.319Y-76.125
X278.119Y-76.125
X166.912Y-101.831
X166.912Y-109.631
X283.688Y-82.781
X283.688Y-90.581
X283.688Y-44.681
X283.688Y-52.481
X128.812Y-63.731
X128.812Y-71.531
X71.662Y-25.631
X71.662Y-33.431
X109.762Y-44.681
X109.762Y-52.481
X128.812Y-25.631
X128.812Y-33.431
X131.156Y-43.35
X131.156Y-51.15
X71.662Y-44.681
X71.662Y-52.481
X185.963Y-82.781
X185.963Y-90.581
X147.862Y-82.781
X147.862Y-90.581
X226.237Y-63.731
X226.237Y-71.531
X283.688Y-63.731
X283.688Y-71.531
X183.131Y-95.25
X190.931Y-95.25
X90.712Y-101.831
X90.712Y-109.631
T5
X265.192Y-39.093
X265.192Y-41.633
X265.192Y-44.172
X265.192Y-46.712
X265.192Y-49.252
X265.192Y-51.792
X265.192Y-54.332
X265.192Y-56.872
X265.192Y-59.412
X265.192Y-61.953
X265.192Y-64.492
X265.192Y-67.032
X280.433Y-39.093
X280.433Y-41.633
X280.433Y-44.172
X280.433Y-46.712
X280.433Y-49.252
X280.433Y-51.792
X280.433Y-54.332
X280.433Y-56.872
X280.433Y-59.412
X280.433Y-61.953
X280.433Y-64.492
X280.433Y-67.032
X133.874Y-38.786
X133.874Y-54.026
X136.414Y-38.786
X136.414Y-54.026
X138.954Y-38.786
X138.954Y-54.026
X141.494Y-38.786
X141.494Y-54.026
X144.034Y-38.786
X144.034Y-54.026
X146.574Y-38.786
X146.574Y-54.026
X149.114Y-38.786
X149.114Y-54.026
X151.654Y-38.786
X151.654Y-54.026
X154.194Y-38.786
X154.194Y-54.026
X156.734Y-38.786
X156.734Y-54.026
X159.274Y-38.786
X159.274Y-54.026
X161.814Y-38.786
X161.814Y-54.026
T6
X249.915Y-81.985
X256.265Y-79.445
X78.465Y-62.935
X84.815Y-60.395
X97.515Y-24.835
X103.865Y-22.295
X230.865Y-43.885
X237.215Y-41.345
X268.965Y-62.935
X275.315Y-60.395
X59.415Y-101.035
X65.765Y-98.495
X97.515Y-43.885
X103.865Y-41.345
X183.24Y-101.035
X189.59Y-98.495
X192.765Y-24.835
X199.115Y-22.295
X21.315Y-24.835
X27.665Y-22.295
X230.865Y-81.985
X237.215Y-79.445
X288.015Y-62.935
X294.365Y-60.395
X59.415Y-62.935
X65.765Y-60.395
X154.665Y-24.835
X161.015Y-22.295
X192.765Y-43.885
X199.115Y-41.345
X59.415Y-81.985
X65.765Y-79.445
X116.565Y-101.035
X122.915Y-98.495
X21.315Y-43.885
X27.665Y-41.345
X268.965Y-24.835
X275.315Y-22.295
X211.815Y-81.985
X218.165Y-79.445
X288.015Y-43.885
X294.365Y-41.345
X173.715Y-62.935
X180.065Y-60.395
X211.815Y-101.035
X218.165Y-98.495
X154.665Y-43.885
X161.015Y-41.345
X40.365Y-81.985
X46.715Y-79.445
X78.465Y-101.035
X84.815Y-98.495
X135.615Y-24.835
X141.965Y-22.295
X145.14Y-101.035
X151.49Y-98.495
X78.465Y-24.835
X84.815Y-22.295
X135.615Y-81.985
X141.965Y-79.445
X154.665Y-62.935
X161.015Y-60.395
X173.715Y-43.885
X180.065Y-41.345
X192.765Y-101.035
X199.115Y-98.495
X135.615Y-43.885
X141.965Y-41.345
X21.315Y-81.985
X27.665Y-79.445
X126.09Y-101.035
X132.44Y-98.495
X97.515Y-101.035
X103.865Y-98.495
X78.465Y-43.885
X84.815Y-41.345
X173.715Y-81.985
X180.065Y-79.445
X192.765Y-81.985
X199.115Y-79.445
X288.015Y-81.985
X294.365Y-79.445
X135.615Y-62.935
X141.965Y-60.395
X230.865Y-101.035
X237.215Y-98.495
X21.315Y-62.935
X27.665Y-60.395
X116.565Y-43.885
X122.915Y-41.345
X173.715Y-101.035
X180.065Y-98.495
X211.815Y-43.885
X218.165Y-41.345
X192.765Y-62.935
X199.115Y-60.395
X40.365Y-43.885
X46.715Y-41.345
X40.365Y-101.035
X46.715Y-98.495
X173.715Y-24.835
X180.065Y-22.295
X116.565Y-24.835
X122.915Y-22.295
X97.515Y-81.985
X103.865Y-79.445
X116.565Y-81.985
X122.915Y-79.445
X288.015Y-101.035
X294.365Y-98.495
X40.365Y-62.935
X46.715Y-60.395
X211.815Y-24.835
X218.165Y-22.295
X97.515Y-62.935
X103.865Y-60.395
X249.915Y-43.885
X256.265Y-41.345
X78.465Y-81.985
X84.815Y-79.445
X268.965Y-101.035
X275.315Y-98.495
X230.865Y-62.935
X237.215Y-60.395
X135.615Y-101.035
X141.965Y-98.495
X21.315Y-101.035
X27.665Y-98.495
X230.865Y-24.835
X237.215Y-22.295
X40.365Y-24.835
X46.715Y-22.295
X154.665Y-81.985
X161.015Y-79.445
X288.015Y-24.835
X294.365Y-22.295
X116.565Y-62.935
X122.915Y-60.395
X249.915Y-101.035
X256.265Y-98.495
X268.965Y-43.885
X275.315Y-41.345
X249.915Y-62.935
X256.265Y-60.395
X211.815Y-62.935
X218.165Y-60.395
X268.965Y-81.985
X275.315Y-79.445
X59.415Y-43.885
X65.765Y-41.345
X154.665Y-101.035
X161.015Y-98.495
X249.915Y-24.835
X256.265Y-22.295
X59.415Y-24.835
X65.765Y-22.295
T3
G00X259.6Y-18.267
M15
G01X259.6Y-18.967
M16
G05
G00X259.6Y-23.087
M15
G01X259.6Y-23.787
M16
G05
G00X266.9Y-18.267
M15
G01X266.9Y-18.967
M16
G05
G00X266.9Y-23.087
M15
G01X266.9Y-23.787
M16
G05
G00X49.981Y-37.299
M15
G01X49.981Y-37.999
M16
G05
G00X49.981Y-42.119
M15
G01X49.981Y-42.819
M16
G05
G00X57.281Y-37.299
M15
G01X57.281Y-37.999
M16
G05
G00X57.281Y-42.119
M15
G01X57.281Y-42.819
M16
G05
G00X30.987Y-18.267
M15
G01X30.987Y-18.967
M16
G05
G00X30.987Y-23.087
M15
G01X30.987Y-23.787
M16
G05
G00X38.288Y-18.267
M15
G01X38.288Y-18.967
M16
G05
G00X38.288Y-23.087
M15
G01X38.288Y-23.787
M16
G05
T7
G00X205.106Y-103.406
M15
G01X207.206Y-103.406
M16
G05
T0
M30
