%TF.GenerationSoftware,KiCad,Pcbnew,(5.1.7)-1*%
%TF.CreationDate,2021-02-07T19:51:08+07:00*%
%TF.ProjectId,75-pixels,37352d70-6978-4656-9c73-2e6b69636164,rev?*%
%TF.SameCoordinates,Original*%
%TF.FileFunction,Soldermask,Top*%
%TF.FilePolarity,Negative*%
%FSLAX46Y46*%
G04 Gerber Fmt 4.6, Leading zero omitted, Abs format (unit mm)*
G04 Created by KiCad (PCBNEW (5.1.7)-1) date 2021-02-07 19:51:08*
%MOMM*%
%LPD*%
G01*
G04 APERTURE LIST*
%ADD10C,1.752600*%
%ADD11R,1.752600X1.752600*%
%ADD12C,3.987800*%
%ADD13C,1.750000*%
%ADD14C,3.048000*%
%ADD15O,1.350000X1.350000*%
%ADD16R,1.350000X1.350000*%
%ADD17C,0.787400*%
%ADD18O,1.200000X1.900000*%
%ADD19C,1.100000*%
%ADD20C,6.100000*%
%ADD21R,1.600000X1.600000*%
%ADD22C,1.600000*%
G04 APERTURE END LIST*
D10*
%TO.C,U2*%
X280432500Y-39092500D03*
X265192500Y-67032500D03*
X280432500Y-41632500D03*
X280432500Y-44172500D03*
X280432500Y-46712500D03*
X280432500Y-49252500D03*
X280432500Y-51792500D03*
X280432500Y-54332500D03*
X280432500Y-56872500D03*
X280432500Y-59412500D03*
X280432500Y-61952500D03*
X280432500Y-64492500D03*
X280432500Y-67032500D03*
X265192500Y-64492500D03*
X265192500Y-61952500D03*
X265192500Y-59412500D03*
X265192500Y-56872500D03*
X265192500Y-54332500D03*
X265192500Y-51792500D03*
X265192500Y-49252500D03*
X265192500Y-46712500D03*
X265192500Y-44172500D03*
X265192500Y-41632500D03*
D11*
X265192500Y-39092500D03*
%TD*%
D10*
%TO.C,U1*%
X133873750Y-38786250D03*
X161813750Y-54026250D03*
X136413750Y-38786250D03*
X138953750Y-38786250D03*
X141493750Y-38786250D03*
X144033750Y-38786250D03*
X146573750Y-38786250D03*
X149113750Y-38786250D03*
X151653750Y-38786250D03*
X154193750Y-38786250D03*
X156733750Y-38786250D03*
X159273750Y-38786250D03*
X161813750Y-38786250D03*
X159273750Y-54026250D03*
X156733750Y-54026250D03*
X154193750Y-54026250D03*
X151653750Y-54026250D03*
X149113750Y-54026250D03*
X146573750Y-54026250D03*
X144033750Y-54026250D03*
X141493750Y-54026250D03*
X138953750Y-54026250D03*
X136413750Y-54026250D03*
D11*
X133873750Y-54026250D03*
%TD*%
D12*
%TO.C,MX_2u_1*%
X148950000Y-103575000D03*
D13*
X143870000Y-103575000D03*
X154030000Y-103575000D03*
D14*
X137043750Y-110560000D03*
X160856250Y-110560000D03*
D12*
X137043750Y-95320000D03*
X160856250Y-95320000D03*
%TD*%
D15*
%TO.C,RESET1*%
X291156250Y-54656250D03*
D16*
X293156250Y-54656250D03*
%TD*%
D17*
%TO.C,REF\u002A\u002A*%
X54843750Y-36214750D03*
X56113750Y-36214750D03*
X57383750Y-36214750D03*
X53573750Y-36214750D03*
X52303750Y-36214750D03*
%TD*%
D15*
%TO.C,J5*%
X256968750Y-35437500D03*
X254968750Y-35437500D03*
X252968750Y-35437500D03*
D16*
X250968750Y-35437500D03*
%TD*%
D18*
%TO.C,J4*%
X266900000Y-23437500D03*
X259600000Y-23437500D03*
D19*
X261650000Y-24037500D03*
X262450000Y-22837500D03*
X263250000Y-24037500D03*
X264050000Y-22837500D03*
X264850000Y-24037500D03*
D18*
X259600000Y-18617500D03*
X266900000Y-18617500D03*
%TD*%
D20*
%TO.C,Poker_oval_hole*%
X206156250Y-103406250D03*
%TD*%
D13*
%TO.C,MX0_13*%
X277855000Y-27375000D03*
X267695000Y-27375000D03*
D12*
X272775000Y-27375000D03*
%TD*%
D17*
%TO.C,REF\u002A\u002A*%
X49772500Y-36214750D03*
X51042500Y-36214750D03*
X54852500Y-36214750D03*
X53582500Y-36214750D03*
X52312500Y-36214750D03*
%TD*%
D13*
%TO.C,MX1_1*%
X49255000Y-46425000D03*
X39095000Y-46425000D03*
D12*
X44175000Y-46425000D03*
%TD*%
D13*
%TO.C,MX0_2*%
X68305000Y-27375000D03*
X58145000Y-27375000D03*
D12*
X63225000Y-27375000D03*
%TD*%
%TO.C,MX_2u_2*%
X187050000Y-103575000D03*
D13*
X181970000Y-103575000D03*
X192130000Y-103575000D03*
D14*
X175143750Y-110560000D03*
X198956250Y-110560000D03*
D12*
X175143750Y-95320000D03*
X198956250Y-95320000D03*
%TD*%
%TO.C,MX_2u_0*%
X129900000Y-103575000D03*
D13*
X124820000Y-103575000D03*
X134980000Y-103575000D03*
D14*
X117993750Y-110560000D03*
X141806250Y-110560000D03*
D12*
X117993750Y-95320000D03*
X141806250Y-95320000D03*
%TD*%
D15*
%TO.C,J3*%
X41250000Y-55968750D03*
X43250000Y-55968750D03*
X45250000Y-55968750D03*
D16*
X47250000Y-55968750D03*
%TD*%
D13*
%TO.C,MX0_1*%
X49255000Y-27375000D03*
X39095000Y-27375000D03*
D12*
X44175000Y-27375000D03*
%TD*%
D13*
%TO.C,MX0_0*%
X30205000Y-27375000D03*
X20045000Y-27375000D03*
D12*
X25125000Y-27375000D03*
%TD*%
D13*
%TO.C,MX0_3*%
X87355000Y-27375000D03*
X77195000Y-27375000D03*
D12*
X82275000Y-27375000D03*
%TD*%
D13*
%TO.C,MX0_5*%
X125455000Y-27375000D03*
X115295000Y-27375000D03*
D12*
X120375000Y-27375000D03*
%TD*%
D13*
%TO.C,MX0_6*%
X144505000Y-27375000D03*
X134345000Y-27375000D03*
D12*
X139425000Y-27375000D03*
%TD*%
D13*
%TO.C,MX0_8*%
X182605000Y-27375000D03*
X172445000Y-27375000D03*
D12*
X177525000Y-27375000D03*
%TD*%
D13*
%TO.C,MX0_9*%
X201655000Y-27375000D03*
X191495000Y-27375000D03*
D12*
X196575000Y-27375000D03*
%TD*%
D13*
%TO.C,MX0_11*%
X239755000Y-27375000D03*
X229595000Y-27375000D03*
D12*
X234675000Y-27375000D03*
%TD*%
D13*
%TO.C,MX0_12*%
X258805000Y-27375000D03*
X248645000Y-27375000D03*
D12*
X253725000Y-27375000D03*
%TD*%
D13*
%TO.C,MX1_0*%
X30205000Y-46425000D03*
X20045000Y-46425000D03*
D12*
X25125000Y-46425000D03*
%TD*%
D13*
%TO.C,MX1_2*%
X68305000Y-46425000D03*
X58145000Y-46425000D03*
D12*
X63225000Y-46425000D03*
%TD*%
D13*
%TO.C,MX1_3*%
X87355000Y-46425000D03*
X77195000Y-46425000D03*
D12*
X82275000Y-46425000D03*
%TD*%
D13*
%TO.C,MX1_4*%
X106405000Y-46425000D03*
X96245000Y-46425000D03*
D12*
X101325000Y-46425000D03*
%TD*%
D13*
%TO.C,MX1_5*%
X125455000Y-46425000D03*
X115295000Y-46425000D03*
D12*
X120375000Y-46425000D03*
%TD*%
D13*
%TO.C,MX1_6*%
X144505000Y-46425000D03*
X134345000Y-46425000D03*
D12*
X139425000Y-46425000D03*
%TD*%
D13*
%TO.C,MX1_7*%
X163555000Y-46425000D03*
X153395000Y-46425000D03*
D12*
X158475000Y-46425000D03*
%TD*%
D13*
%TO.C,MX1_8*%
X182605000Y-46425000D03*
X172445000Y-46425000D03*
D12*
X177525000Y-46425000D03*
%TD*%
D13*
%TO.C,MX1_9*%
X201655000Y-46425000D03*
X191495000Y-46425000D03*
D12*
X196575000Y-46425000D03*
%TD*%
D13*
%TO.C,MX1_10*%
X220705000Y-46425000D03*
X210545000Y-46425000D03*
D12*
X215625000Y-46425000D03*
%TD*%
D13*
%TO.C,MX1_11*%
X239755000Y-46425000D03*
X229595000Y-46425000D03*
D12*
X234675000Y-46425000D03*
%TD*%
D13*
%TO.C,MX1_12*%
X258805000Y-46425000D03*
X248645000Y-46425000D03*
D12*
X253725000Y-46425000D03*
%TD*%
D13*
%TO.C,MX1_13*%
X277855000Y-46425000D03*
X267695000Y-46425000D03*
D12*
X272775000Y-46425000D03*
%TD*%
D13*
%TO.C,MX2_0*%
X30205000Y-65475000D03*
X20045000Y-65475000D03*
D12*
X25125000Y-65475000D03*
%TD*%
D13*
%TO.C,MX2_1*%
X49255000Y-65475000D03*
X39095000Y-65475000D03*
D12*
X44175000Y-65475000D03*
%TD*%
D13*
%TO.C,MX2_2*%
X68305000Y-65475000D03*
X58145000Y-65475000D03*
D12*
X63225000Y-65475000D03*
%TD*%
D13*
%TO.C,MX2_3*%
X87355000Y-65475000D03*
X77195000Y-65475000D03*
D12*
X82275000Y-65475000D03*
%TD*%
D13*
%TO.C,MX2_4*%
X106405000Y-65475000D03*
X96245000Y-65475000D03*
D12*
X101325000Y-65475000D03*
%TD*%
D13*
%TO.C,MX2_5*%
X125455000Y-65475000D03*
X115295000Y-65475000D03*
D12*
X120375000Y-65475000D03*
%TD*%
D13*
%TO.C,MX2_6*%
X144505000Y-65475000D03*
X134345000Y-65475000D03*
D12*
X139425000Y-65475000D03*
%TD*%
D13*
%TO.C,MX2_7*%
X163555000Y-65475000D03*
X153395000Y-65475000D03*
D12*
X158475000Y-65475000D03*
%TD*%
D13*
%TO.C,MX2_8*%
X182605000Y-65475000D03*
X172445000Y-65475000D03*
D12*
X177525000Y-65475000D03*
%TD*%
D13*
%TO.C,MX2_9*%
X201655000Y-65475000D03*
X191495000Y-65475000D03*
D12*
X196575000Y-65475000D03*
%TD*%
D13*
%TO.C,MX2_10*%
X220705000Y-65475000D03*
X210545000Y-65475000D03*
D12*
X215625000Y-65475000D03*
%TD*%
D13*
%TO.C,MX2_11*%
X239755000Y-65475000D03*
X229595000Y-65475000D03*
D12*
X234675000Y-65475000D03*
%TD*%
D13*
%TO.C,MX2_12*%
X258805000Y-65475000D03*
X248645000Y-65475000D03*
D12*
X253725000Y-65475000D03*
%TD*%
D13*
%TO.C,MX2_13*%
X277855000Y-65475000D03*
X267695000Y-65475000D03*
D12*
X272775000Y-65475000D03*
%TD*%
D13*
%TO.C,MX3_0*%
X30205000Y-84525000D03*
X20045000Y-84525000D03*
D12*
X25125000Y-84525000D03*
%TD*%
D13*
%TO.C,MX3_1*%
X49255000Y-84525000D03*
X39095000Y-84525000D03*
D12*
X44175000Y-84525000D03*
%TD*%
D13*
%TO.C,MX3_2*%
X68305000Y-84525000D03*
X58145000Y-84525000D03*
D12*
X63225000Y-84525000D03*
%TD*%
D13*
%TO.C,MX3_3*%
X87355000Y-84525000D03*
X77195000Y-84525000D03*
D12*
X82275000Y-84525000D03*
%TD*%
D13*
%TO.C,MX3_4*%
X106405000Y-84525000D03*
X96245000Y-84525000D03*
D12*
X101325000Y-84525000D03*
%TD*%
D13*
%TO.C,MX3_5*%
X125455000Y-84525000D03*
X115295000Y-84525000D03*
D12*
X120375000Y-84525000D03*
%TD*%
D13*
%TO.C,MX3_6*%
X144505000Y-84525000D03*
X134345000Y-84525000D03*
D12*
X139425000Y-84525000D03*
%TD*%
D13*
%TO.C,MX3_7*%
X163555000Y-84525000D03*
X153395000Y-84525000D03*
D12*
X158475000Y-84525000D03*
%TD*%
D13*
%TO.C,MX3_8*%
X182605000Y-84525000D03*
X172445000Y-84525000D03*
D12*
X177525000Y-84525000D03*
%TD*%
D13*
%TO.C,MX3_9*%
X201655000Y-84525000D03*
X191495000Y-84525000D03*
D12*
X196575000Y-84525000D03*
%TD*%
D13*
%TO.C,MX3_10*%
X220705000Y-84525000D03*
X210545000Y-84525000D03*
D12*
X215625000Y-84525000D03*
%TD*%
D13*
%TO.C,MX3_11*%
X239755000Y-84525000D03*
X229595000Y-84525000D03*
D12*
X234675000Y-84525000D03*
%TD*%
D13*
%TO.C,MX3_12*%
X258805000Y-84525000D03*
X248645000Y-84525000D03*
D12*
X253725000Y-84525000D03*
%TD*%
D13*
%TO.C,MX3_13*%
X277855000Y-84525000D03*
X267695000Y-84525000D03*
D12*
X272775000Y-84525000D03*
%TD*%
D13*
%TO.C,MX4_0*%
X30205000Y-103575000D03*
X20045000Y-103575000D03*
D12*
X25125000Y-103575000D03*
%TD*%
D13*
%TO.C,MX4_1*%
X49255000Y-103575000D03*
X39095000Y-103575000D03*
D12*
X44175000Y-103575000D03*
%TD*%
D13*
%TO.C,MX4_2*%
X68305000Y-103575000D03*
X58145000Y-103575000D03*
D12*
X63225000Y-103575000D03*
%TD*%
D13*
%TO.C,MX4_3*%
X87355000Y-103575000D03*
X77195000Y-103575000D03*
D12*
X82275000Y-103575000D03*
%TD*%
D13*
%TO.C,MX4_4*%
X106405000Y-103575000D03*
X96245000Y-103575000D03*
D12*
X101325000Y-103575000D03*
%TD*%
D13*
%TO.C,MX4_5*%
X125455000Y-103575000D03*
X115295000Y-103575000D03*
D12*
X120375000Y-103575000D03*
%TD*%
D13*
%TO.C,MX4_6*%
X144505000Y-103575000D03*
X134345000Y-103575000D03*
D12*
X139425000Y-103575000D03*
%TD*%
D13*
%TO.C,MX4_7*%
X163555000Y-103575000D03*
X153395000Y-103575000D03*
D12*
X158475000Y-103575000D03*
%TD*%
D13*
%TO.C,MX4_8*%
X182605000Y-103575000D03*
X172445000Y-103575000D03*
D12*
X177525000Y-103575000D03*
%TD*%
D13*
%TO.C,MX4_9*%
X201655000Y-103575000D03*
X191495000Y-103575000D03*
D12*
X196575000Y-103575000D03*
%TD*%
D13*
%TO.C,MX4_10*%
X220705000Y-103575000D03*
X210545000Y-103575000D03*
D12*
X215625000Y-103575000D03*
%TD*%
D13*
%TO.C,MX4_11*%
X239755000Y-103575000D03*
X229595000Y-103575000D03*
D12*
X234675000Y-103575000D03*
%TD*%
D13*
%TO.C,MX4_12*%
X258805000Y-103575000D03*
X248645000Y-103575000D03*
D12*
X253725000Y-103575000D03*
%TD*%
D13*
%TO.C,MX4_13*%
X277855000Y-103575000D03*
X267695000Y-103575000D03*
D12*
X272775000Y-103575000D03*
%TD*%
D13*
%TO.C,MX0_7*%
X163555000Y-27375000D03*
X153395000Y-27375000D03*
D12*
X158475000Y-27375000D03*
%TD*%
D13*
%TO.C,MX0_4*%
X106405000Y-27375000D03*
X96245000Y-27375000D03*
D12*
X101325000Y-27375000D03*
%TD*%
D13*
%TO.C,MX0_10*%
X220705000Y-27375000D03*
X210545000Y-27375000D03*
D12*
X215625000Y-27375000D03*
%TD*%
D13*
%TO.C,MX0_14*%
X296905000Y-27375000D03*
X286745000Y-27375000D03*
D12*
X291825000Y-27375000D03*
%TD*%
D13*
%TO.C,MX1_14*%
X296905000Y-46425000D03*
X286745000Y-46425000D03*
D12*
X291825000Y-46425000D03*
%TD*%
D13*
%TO.C,MX2_14*%
X296905000Y-65475000D03*
X286745000Y-65475000D03*
D12*
X291825000Y-65475000D03*
%TD*%
D13*
%TO.C,MX3_14*%
X296905000Y-84525000D03*
X286745000Y-84525000D03*
D12*
X291825000Y-84525000D03*
%TD*%
D13*
%TO.C,MX4_14*%
X296905000Y-103575000D03*
X286745000Y-103575000D03*
D12*
X291825000Y-103575000D03*
%TD*%
D18*
%TO.C,J2*%
X57281250Y-42468750D03*
X49981250Y-42468750D03*
D19*
X52031250Y-43068750D03*
X52831250Y-41868750D03*
X53631250Y-43068750D03*
X54431250Y-41868750D03*
X55231250Y-43068750D03*
D18*
X49981250Y-37648750D03*
X57281250Y-37648750D03*
%TD*%
%TO.C,J1*%
X38287500Y-23437500D03*
X30987500Y-23437500D03*
D19*
X33037500Y-24037500D03*
X33837500Y-22837500D03*
X34637500Y-24037500D03*
X35437500Y-22837500D03*
X36237500Y-24037500D03*
D18*
X30987500Y-18617500D03*
X38287500Y-18617500D03*
%TD*%
D21*
%TO.C,D4_14*%
X283687500Y-109631250D03*
D22*
X283687500Y-101831250D03*
%TD*%
D21*
%TO.C,D4_13*%
X281212500Y-109631250D03*
D22*
X281212500Y-101831250D03*
%TD*%
D21*
%TO.C,D4_12*%
X262162500Y-109631250D03*
D22*
X262162500Y-101831250D03*
%TD*%
D21*
%TO.C,D4_11*%
X226237500Y-109631250D03*
D22*
X226237500Y-101831250D03*
%TD*%
D21*
%TO.C,D4_10*%
X224062500Y-109631250D03*
D22*
X224062500Y-101831250D03*
%TD*%
D21*
%TO.C,D4_9*%
X210243750Y-95250000D03*
D22*
X202443750Y-95250000D03*
%TD*%
D21*
%TO.C,D4_8*%
X190931250Y-95250000D03*
D22*
X183131250Y-95250000D03*
%TD*%
D21*
%TO.C,D4_7*%
X166912500Y-109631250D03*
D22*
X166912500Y-101831250D03*
%TD*%
D21*
%TO.C,D4_6*%
X154837500Y-95156250D03*
D22*
X147037500Y-95156250D03*
%TD*%
D21*
%TO.C,D4_5*%
X131993750Y-95156250D03*
D22*
X124193750Y-95156250D03*
%TD*%
D21*
%TO.C,D4_4*%
X109762500Y-109631250D03*
D22*
X109762500Y-101831250D03*
%TD*%
D21*
%TO.C,D4_3*%
X90712500Y-109631250D03*
D22*
X90712500Y-101831250D03*
%TD*%
D21*
%TO.C,D4_2*%
X71662500Y-109631250D03*
D22*
X71662500Y-101831250D03*
%TD*%
D21*
%TO.C,D4_1*%
X52612500Y-109631250D03*
D22*
X52612500Y-101831250D03*
%TD*%
D21*
%TO.C,D4_0*%
X33562500Y-109631250D03*
D22*
X33562500Y-101831250D03*
%TD*%
D21*
%TO.C,D3_14*%
X283687500Y-90581250D03*
D22*
X283687500Y-82781250D03*
%TD*%
D21*
%TO.C,D3_13*%
X281212500Y-90581250D03*
D22*
X281212500Y-82781250D03*
%TD*%
D21*
%TO.C,D3_12*%
X262162500Y-90581250D03*
D22*
X262162500Y-82781250D03*
%TD*%
D21*
%TO.C,D3_11*%
X226237500Y-90581250D03*
D22*
X226237500Y-82781250D03*
%TD*%
D21*
%TO.C,D3_10*%
X224062500Y-90581250D03*
D22*
X224062500Y-82781250D03*
%TD*%
D21*
%TO.C,D3_9*%
X205031250Y-90656250D03*
D22*
X205031250Y-82856250D03*
%TD*%
D21*
%TO.C,D3_8*%
X185962500Y-90581250D03*
D22*
X185962500Y-82781250D03*
%TD*%
D21*
%TO.C,D3_7*%
X166912500Y-90581250D03*
D22*
X166912500Y-82781250D03*
%TD*%
D21*
%TO.C,D3_6*%
X147862500Y-90581250D03*
D22*
X147862500Y-82781250D03*
%TD*%
D21*
%TO.C,D3_5*%
X128812500Y-90581250D03*
D22*
X128812500Y-82781250D03*
%TD*%
D21*
%TO.C,D3_4*%
X109762500Y-90581250D03*
D22*
X109762500Y-82781250D03*
%TD*%
D21*
%TO.C,D3_3*%
X90712500Y-90581250D03*
D22*
X90712500Y-82781250D03*
%TD*%
D21*
%TO.C,D3_2*%
X71662500Y-90581250D03*
D22*
X71662500Y-82781250D03*
%TD*%
D21*
%TO.C,D3_1*%
X52612500Y-90581250D03*
D22*
X52612500Y-82781250D03*
%TD*%
D21*
%TO.C,D3_0*%
X33562500Y-90581250D03*
D22*
X33562500Y-82781250D03*
%TD*%
D21*
%TO.C,D2_14*%
X283687500Y-71531250D03*
D22*
X283687500Y-63731250D03*
%TD*%
D21*
%TO.C,D2_13*%
X270318750Y-76125000D03*
D22*
X278118750Y-76125000D03*
%TD*%
D21*
%TO.C,D2_12*%
X262162500Y-71531250D03*
D22*
X262162500Y-63731250D03*
%TD*%
D21*
%TO.C,D2_11*%
X226237500Y-71531250D03*
D22*
X226237500Y-63731250D03*
%TD*%
D21*
%TO.C,D2_10*%
X224062500Y-71531250D03*
D22*
X224062500Y-63731250D03*
%TD*%
D21*
%TO.C,D2_9*%
X205031250Y-71606250D03*
D22*
X205031250Y-63806250D03*
%TD*%
D21*
%TO.C,D2_8*%
X185962500Y-71531250D03*
D22*
X185962500Y-63731250D03*
%TD*%
D21*
%TO.C,D2_7*%
X166912500Y-71531250D03*
D22*
X166912500Y-63731250D03*
%TD*%
D21*
%TO.C,D2_6*%
X150431250Y-57187500D03*
D22*
X142631250Y-57187500D03*
%TD*%
D21*
%TO.C,D2_5*%
X128812500Y-71531250D03*
D22*
X128812500Y-63731250D03*
%TD*%
D21*
%TO.C,D2_4*%
X109762500Y-71531250D03*
D22*
X109762500Y-63731250D03*
%TD*%
D21*
%TO.C,D2_3*%
X90712500Y-71531250D03*
D22*
X90712500Y-63731250D03*
%TD*%
D21*
%TO.C,D2_2*%
X71662500Y-71531250D03*
D22*
X71662500Y-63731250D03*
%TD*%
D21*
%TO.C,D2_1*%
X52612500Y-71531250D03*
D22*
X52612500Y-63731250D03*
%TD*%
D21*
%TO.C,D2_0*%
X33562500Y-71531250D03*
D22*
X33562500Y-63731250D03*
%TD*%
D21*
%TO.C,D1_14*%
X283687500Y-52481250D03*
D22*
X283687500Y-44681250D03*
%TD*%
D21*
%TO.C,D1_13*%
X270318750Y-73687500D03*
D22*
X278118750Y-73687500D03*
%TD*%
D21*
%TO.C,D1_12*%
X262162500Y-52481250D03*
D22*
X262162500Y-44681250D03*
%TD*%
D21*
%TO.C,D1_11*%
X226237500Y-52481250D03*
D22*
X226237500Y-44681250D03*
%TD*%
D21*
%TO.C,D1_10*%
X224062500Y-52481250D03*
D22*
X224062500Y-44681250D03*
%TD*%
D21*
%TO.C,D1_9*%
X205031250Y-52556250D03*
D22*
X205031250Y-44756250D03*
%TD*%
D21*
%TO.C,D1_8*%
X185962500Y-52481250D03*
D22*
X185962500Y-44681250D03*
%TD*%
D21*
%TO.C,D1_7*%
X166912500Y-52481250D03*
D22*
X166912500Y-44681250D03*
%TD*%
D21*
%TO.C,D1_6*%
X131156250Y-51150000D03*
D22*
X131156250Y-43350000D03*
%TD*%
D21*
%TO.C,D1_5*%
X128812500Y-52481250D03*
D22*
X128812500Y-44681250D03*
%TD*%
D21*
%TO.C,D1_4*%
X109762500Y-52481250D03*
D22*
X109762500Y-44681250D03*
%TD*%
D21*
%TO.C,D1_3*%
X90712500Y-52481250D03*
D22*
X90712500Y-44681250D03*
%TD*%
D21*
%TO.C,D1_2*%
X71662500Y-52481250D03*
D22*
X71662500Y-44681250D03*
%TD*%
D21*
%TO.C,D1_1*%
X52593750Y-54337500D03*
D22*
X52593750Y-46537500D03*
%TD*%
D21*
%TO.C,D1_0*%
X33562500Y-54243750D03*
D22*
X33562500Y-46443750D03*
%TD*%
D21*
%TO.C,D0_14*%
X283687500Y-33431250D03*
D22*
X283687500Y-25631250D03*
%TD*%
D21*
%TO.C,D0_13*%
X281212500Y-33431250D03*
D22*
X281212500Y-25631250D03*
%TD*%
D21*
%TO.C,D0_12*%
X262162500Y-34650000D03*
D22*
X262162500Y-26850000D03*
%TD*%
D21*
%TO.C,D0_11*%
X226406250Y-33431250D03*
D22*
X226406250Y-25631250D03*
%TD*%
D21*
%TO.C,D0_10*%
X224062500Y-33431250D03*
D22*
X224062500Y-25631250D03*
%TD*%
D21*
%TO.C,D0_9*%
X205012500Y-33431250D03*
D22*
X205012500Y-25631250D03*
%TD*%
D21*
%TO.C,D0_8*%
X185962500Y-33431250D03*
D22*
X185962500Y-25631250D03*
%TD*%
D21*
%TO.C,D0_7*%
X166912500Y-33431250D03*
D22*
X166912500Y-25631250D03*
%TD*%
D21*
%TO.C,D0_6*%
X147862500Y-33431250D03*
D22*
X147862500Y-25631250D03*
%TD*%
D21*
%TO.C,D0_5*%
X128812500Y-33431250D03*
D22*
X128812500Y-25631250D03*
%TD*%
D21*
%TO.C,D0_4*%
X109762500Y-33431250D03*
D22*
X109762500Y-25631250D03*
%TD*%
D21*
%TO.C,D0_3*%
X90712500Y-33431250D03*
D22*
X90712500Y-25631250D03*
%TD*%
D21*
%TO.C,D0_2*%
X71662500Y-33431250D03*
D22*
X71662500Y-25631250D03*
%TD*%
D21*
%TO.C,D0_1*%
X52612500Y-33431250D03*
D22*
X52612500Y-25631250D03*
%TD*%
D21*
%TO.C,D0_0*%
X33562500Y-34087500D03*
D22*
X33562500Y-26287500D03*
%TD*%
M02*
